<svg width="436" height="51" viewBox="0 0 436 51" fill="none" xmlns="http://www.w3.org/2000/svg">
<path d="M4.36364 43.3636V4.09091H13.0909V8.45455H8.72727V39H13.0909V43.3636H4.36364ZM69.7543 43.3636V39H74.1179V8.45455H69.7543V4.09091H78.4815V43.3636H69.7543ZM87.1875 34.6364V30.2727H91.5511V25.9091H87.1875V21.5455H91.5511V17.1818H95.9148V21.5455H100.278V17.1818H104.642V21.5455H109.006V25.9091H104.642V30.2727H109.006V34.6364H104.642V39H100.278V34.6364H95.9148V39H91.5511V34.6364H87.1875ZM95.9148 30.2727H100.278V25.9091H95.9148V30.2727ZM130.781 39V17.1818H148.236V25.9091H143.872V21.5455H135.145V39H130.781ZM152.578 39V34.6364H156.942V21.5455H152.578V17.1818H161.305V34.6364H165.669V39H152.578ZM156.942 12.8182V8.45455H161.305V12.8182H156.942ZM174.375 39V17.1818H187.466V8.45455H191.83V39H174.375ZM178.739 34.6364H187.466V21.5455H178.739V34.6364ZM196.172 47.7273V43.3636H209.263V39H196.172V17.1818H213.626V47.7273H196.172ZM200.536 34.6364H209.263V21.5455H200.536V34.6364ZM217.969 39V17.1818H235.423V30.2727H222.332V34.6364H235.423V39H217.969ZM222.332 21.5455V25.9091H231.06V21.5455H222.332ZM239.766 39V8.45455H244.129V17.1818H257.22V39H252.857V21.5455H244.129V39H239.766ZM261.562 39V25.9091H274.653V21.5455H261.562V17.1818H279.017V34.6364H283.381V39H261.562ZM265.926 30.2727V34.6364H274.653V30.2727H265.926ZM283.359 39V17.1818H300.814V21.5455H287.723V34.6364H300.814V39H283.359ZM305.156 39V8.45455H309.52V25.9091H318.247V30.2727H309.52V39H305.156ZM318.247 30.2727H322.611V39H318.247V30.2727ZM318.247 17.1818H322.611V25.9091H318.247V17.1818ZM326.953 39V34.6364H340.044V30.2727H326.953V17.1818H344.408V21.5455H331.317V25.9091H344.408V39H326.953ZM348.75 39V21.5455H361.841V12.8182H348.75V8.45455H366.205V25.9091H353.114V34.6364H366.205V39H348.75ZM370.547 39V8.45455H388.001V39H370.547ZM374.911 34.6364H383.638V30.2727H379.274V25.9091H383.638V12.8182H374.911V17.1818H379.274V21.5455H374.911V34.6364ZM392.344 39V21.5455H405.435V12.8182H392.344V8.45455H409.798V25.9091H396.707V34.6364H409.798V39H392.344ZM414.141 39V21.5455H427.232V12.8182H414.141V8.45455H431.595V25.9091H418.504V34.6364H431.595V39H414.141Z" fill="#383D36"/>
<path fill-rule="evenodd" clip-rule="evenodd" d="M25 11.9208H27.4V35.6832H25V44H40.2V35.6832H37.8V27.3663H44.2L45.8 28.9505V44H59V35.6832H56.2V25.7822L53.4 23.0099L56.2 20.2376V9.94059L50.2 4H25V11.9208ZM37.8 11.9208V19.0495H44.2L45.8 17.5V13.6374L44.2 11.9208H37.8Z" fill="#383D36"/>
</svg>
