<?xml version="1.0" standalone="no"?>
<!DOCTYPE svg PUBLIC "-//W3C//DTD SVG 20010904//EN"
 "http://www.w3.org/TR/2001/REC-SVG-20010904/DTD/svg10.dtd">
<svg version="1.0" xmlns="http://www.w3.org/2000/svg"
 width="1050.000000pt" height="600.000000pt" viewBox="0 0 1050.000000 600.000000"
 preserveAspectRatio="xMidYMid meet">

<g transform="translate(0.000000,600.000000) scale(0.100000,-0.100000)"
fill="#000000" stroke="none">
<path d="M0 3000 l0 -3000 5250 0 5250 0 0 3000 0 3000 -5250 0 -5250 0 0
-3000z m5099 2506 c9 -7 90 -63 181 -124 183 -122 281 -211 323 -294 l27 -53
0 -355 0 -355 -25 -37 c-24 -36 -25 -42 -25 -206 0 -153 -2 -175 -25 -242 -14
-40 -39 -98 -56 -129 -60 -106 -188 -249 -211 -235 -4 3 -8 93 -8 200 l0 194
-55 0 -55 0 0 70 0 70 55 0 55 0 0 45 0 45 -60 0 -60 0 0 -45 0 -45 -100 0
-100 0 0 -69 0 -70 -42 -3 -43 -3 -5 -200 -5 -200 -65 65 c-80 79 -136 162
-181 267 l-34 78 -3 190 c-3 183 -4 191 -28 222 l-24 32 0 358 c0 333 2 361
20 401 27 59 78 119 151 178 52 42 366 260 378 263 3 1 12 -5 20 -13z m-604
-2550 c55 -62 65 -79 65 -110 l0 -36 -124 0 -125 0 -3 38 -3 37 -92 3 -93 3 0
72 0 72 155 -3 154 -3 66 -73z m-415 -226 l0 -300 105 0 105 0 0 -75 0 -75
-152 0 -153 0 -77 77 -78 78 0 225 0 225 72 72 c72 72 73 73 125 73 l53 0 0
-300z m1253 -69 c81 -202 147 -371 147 -375 0 -3 -56 -6 -123 -6 l-124 0 -16
40 -15 40 -121 0 c-67 0 -121 3 -121 7 0 4 10 37 22 75 l22 68 69 0 c66 0 68
1 61 23 -4 12 -47 125 -95 252 -49 126 -89 233 -89 237 0 5 53 8 118 8 l119 0
146 -369z m497 -6 l0 -375 -125 0 -125 0 0 375 0 375 125 0 125 0 0 -375z
m407 303 l73 -72 0 -116 0 -116 -54 -53 c-30 -29 -58 -51 -64 -47 -14 8 -236
-24 -243 -36 -3 -5 -21 -8 -40 -6 l-34 3 0 65 0 65 93 3 92 3 0 119 0 120 -90
0 c-49 0 -90 3 -91 8 -4 26 -5 118 -2 125 2 4 68 7 146 7 l142 0 72 -72z
m-1267 -113 l51 -140 -67 -212 -68 -213 -118 0 c-65 0 -118 4 -118 8 0 4 56
159 125 342 69 184 128 341 130 349 3 8 7 12 9 10 2 -2 27 -67 56 -144z m-410
-355 l0 -210 -110 0 -110 0 0 135 0 134 -62 3 -63 3 -3 59 c-2 32 -1 65 2 72
4 11 41 14 176 14 l170 0 0 -210z m1704 -77 c36 -66 66 -124 66 -127 0 -3 -59
-6 -130 -6 l-130 0 -50 106 c-28 58 -50 109 -50 113 0 4 43 7 96 7 79 -1 98 2
111 17 9 9 17 16 19 15 1 -2 32 -58 68 -125z m-1392 -670 c3 -145 3 -148 26
-151 17 -3 22 -10 22 -33 0 -28 -2 -29 -47 -29 -39 0 -52 5 -80 32 l-33 32 0
148 0 148 55 0 54 0 3 -147z m188 112 l0 -35 -55 0 -55 0 0 35 0 35 55 0 55 0
0 -35z m708 -147 l2 -178 -55 0 -55 0 0 181 0 180 53 -3 52 -3 3 -177z m-1596
14 l3 -127 30 -1 c17 -1 36 -2 43 -3 6 -1 12 -14 12 -31 l0 -30 -67 0 c-62 0
-70 2 -100 32 -33 32 -33 32 -33 129 l0 97 40 36 c62 56 69 46 72 -102z m181
95 c41 -47 36 -57 -28 -57 -42 0 -55 3 -55 15 0 11 -11 15 -40 15 -39 0 -40 1
-40 33 l0 33 68 -4 c61 -3 69 -6 95 -35z m1187 -92 c0 -93 3 -125 13 -127 6 0
23 -1 37 -2 21 -1 26 -7 28 -33 l3 -33 -57 0 c-52 0 -62 4 -91 32 -30 29 -33
37 -33 94 0 46 -4 63 -15 68 -9 3 -15 18 -15 36 0 20 5 30 15 30 8 0 15 6 15
14 0 12 62 42 93 45 4 1 7 -55 7 -124z m-980 36 c0 -16 -6 -31 -15 -35 -11 -4
-15 -22 -15 -71 0 -51 3 -65 15 -65 10 0 15 -10 15 -30 0 -28 -3 -30 -37 -30
-28 0 -45 8 -70 32 -31 30 -33 37 -33 97 0 60 3 68 32 98 25 26 40 33 70 33
35 0 38 -2 38 -29z m129 -6 c27 -31 31 -43 31 -94 0 -50 -4 -63 -31 -94 -26
-31 -38 -37 -70 -37 -36 0 -39 2 -39 29 0 16 4 31 9 33 15 6 19 108 5 123 -8
7 -14 27 -14 44 0 29 2 31 39 31 32 0 44 -6 70 -35z m371 -95 l0 -130 -55 0
-55 0 0 130 0 130 55 0 55 0 0 -130z m297 95 l34 -34 -2 -96 -2 -95 -53 0 -53
0 -3 98 -3 97 -75 1 c-67 2 -75 4 -72 20 7 38 22 44 109 44 84 0 86 -1 120
-35z m263 5 c0 -27 -3 -30 -30 -30 -27 0 -30 3 -30 30 0 27 3 30 30 30 27 0
30 -3 30 -30z m287 -2 c33 -32 33 -32 33 -130 l0 -98 -55 0 -55 0 0 100 0 100
-25 0 c-29 0 -32 16 -8 42 26 29 72 23 110 -14z m-1527 -138 l0 -90 -50 0 -50
0 0 60 c0 57 -1 60 -25 60 -21 0 -25 5 -25 30 l0 30 75 0 75 0 0 -90z m880 40
c0 -15 -7 -20 -25 -20 -20 0 -25 -5 -25 -25 0 -20 5 -25 25 -25 17 0 25 -5 25
-18 0 -29 -21 -42 -69 -42 -81 0 -120 72 -69 127 18 19 32 23 80 23 51 0 58
-2 58 -20z m-860 -495 l0 -35 -50 0 -50 0 0 35 0 35 50 0 50 0 0 -35z m2200
-145 l0 -180 -50 0 -50 0 0 180 0 180 50 0 50 0 0 -180z m890 145 l0 -35 -50
0 -50 0 0 35 0 35 50 0 50 0 0 -35z m-5233 -155 c35 -85 63 -158 63 -162 0 -5
-24 -8 -54 -8 -45 0 -54 3 -59 20 -4 17 -14 20 -56 20 -28 0 -51 2 -51 4 0 3
4 16 10 30 7 19 17 26 35 26 14 0 25 4 25 9 0 5 -18 55 -39 110 -43 110 -44
107 29 106 l35 0 62 -155z m3191 20 l43 -50 36 29 36 29 25 -30 26 -31 -32
-28 c-18 -16 -32 -32 -32 -36 0 -4 14 -22 32 -40 l32 -33 -61 0 -61 0 -96 110
c-106 121 -116 146 -69 184 15 11 36 23 47 27 18 4 22 0 26 -38 4 -33 16 -56
48 -93z m90 107 c12 -11 22 -31 22 -44 0 -21 -4 -23 -50 -23 -38 0 -50 4 -50
15 0 8 -9 15 -20 15 -15 0 -20 7 -20 29 0 27 3 30 38 33 43 4 49 2 80 -25z
m345 24 c15 -1 17 -16 17 -161 l0 -160 -50 0 -50 0 0 158 c0 87 3 161 6 165 3
3 18 4 32 2 15 -1 35 -3 45 -4z m198 -28 c24 -23 28 -36 29 -79 0 -67 -23 -88
-111 -103 -36 -6 -69 -11 -72 -11 -4 0 -7 14 -7 30 0 28 2 30 40 30 l40 0 0
50 0 50 -40 0 c-38 0 -40 2 -40 29 0 28 2 30 48 33 69 5 82 2 113 -29z m-3289
-100 c3 -139 -2 -128 61 -132 12 -1 17 -10 17 -31 0 -30 0 -30 -57 -30 -51 0
-61 4 -90 32 -30 29 -33 37 -33 95 0 47 -4 65 -15 69 -9 4 -15 19 -15 35 0 19
5 29 15 29 8 0 15 6 15 14 0 12 59 43 87 45 9 1 13 -34 15 -126z m1390 0 l3
-128 33 -3 c28 -3 32 -7 32 -33 0 -29 0 -29 -59 -29 -55 0 -61 2 -90 35 -28
32 -31 42 -31 100 0 37 -4 65 -10 65 -5 0 -10 14 -10 30 0 17 5 30 10 30 6 0
10 6 10 14 0 13 66 43 97 45 9 1 13 -34 15 -126z m3090 0 l3 -128 30 0 c26 -1
30 -4 33 -33 l3 -32 -59 0 c-56 0 -62 2 -91 35 -28 32 -31 42 -31 100 0 37 -4
65 -10 65 -5 0 -10 14 -10 30 0 17 5 30 10 30 6 0 10 6 10 14 0 13 66 43 97
45 9 1 13 -34 15 -126z m-5166 42 c17 -54 17 -55 -10 -142 -14 -48 -28 -89
-30 -91 -2 -1 -26 -2 -53 0 l-49 3 55 147 c30 81 58 145 62 142 5 -3 16 -29
25 -59z m354 -75 c0 -55 3 -99 8 -99 42 7 53 -12 25 -43 -26 -29 -72 -23 -110
14 -33 32 -33 32 -33 130 l0 98 55 0 55 0 0 -100z m170 -30 l0 -130 -55 0 -55
0 0 130 0 130 55 0 55 0 0 -130z m240 100 c0 -27 -3 -30 -30 -30 -27 0 -30 3
-30 30 0 27 3 30 30 30 27 0 30 -3 30 -30z m170 -6 c0 -21 -4 -33 -10 -29 -5
3 -10 -3 -11 -14 -3 -87 0 -116 10 -119 6 -2 11 -17 11 -33 0 -26 -3 -29 -32
-29 -23 0 -43 10 -65 31 -31 28 -33 34 -33 97 0 61 3 69 32 99 23 24 41 33 65
33 31 0 33 -2 33 -36z m127 4 c31 -30 33 -37 33 -97 0 -60 -3 -68 -32 -98 -25
-26 -40 -33 -70 -33 -36 0 -38 2 -38 30 0 20 5 30 15 30 12 0 15 14 15 65 0
49 -4 67 -15 71 -9 4 -15 19 -15 35 0 27 3 29 37 29 28 0 45 -8 70 -32z m193
-98 l0 -130 -55 0 -55 0 0 130 0 130 55 0 55 0 0 -130z m152 113 c15 -14 18
-32 18 -130 l0 -113 -55 0 -55 0 0 95 c0 93 -1 95 -25 101 -29 7 -32 20 -8 46
21 24 99 25 125 1z m160 -10 c27 -26 28 -30 28 -130 l0 -103 -55 0 -54 0 -3
98 c-3 92 -4 97 -25 100 -27 4 -28 10 -7 40 22 32 79 30 116 -5z m315 -5 c33
-32 33 -32 33 -130 l0 -98 -50 0 -49 0 -3 98 -3 97 -74 0 c-81 0 -97 11 -65
46 14 16 31 19 98 19 77 0 81 -1 113 -32z m273 4 c0 -36 -5 -40 -35 -34 -20 3
-25 10 -25 33 0 26 4 29 30 29 26 0 30 -4 30 -28z m140 -102 l0 -130 -50 0
-50 0 0 130 0 130 50 0 50 0 0 -130z m190 100 c0 -18 -6 -33 -15 -36 -11 -5
-15 -22 -15 -70 0 -50 3 -64 15 -64 10 0 15 -10 15 -30 0 -28 -3 -30 -37 -30
-28 0 -45 8 -70 32 -31 30 -33 37 -33 97 0 60 3 68 32 98 25 26 40 33 70 33
36 0 38 -2 38 -30z m129 -7 c27 -31 31 -44 31 -94 0 -51 -4 -63 -31 -94 -26
-29 -38 -35 -70 -35 -36 0 -39 2 -39 29 0 16 5 31 12 33 16 6 15 131 -1 136
-6 2 -11 17 -11 33 0 27 3 29 39 29 32 0 44 -6 70 -37z m181 -93 l0 -130 -55
0 -55 0 0 130 0 130 55 0 55 0 0 -130z m142 103 c25 -26 27 -36 30 -131 l3
-102 -52 0 -52 0 -3 98 c-2 68 -7 97 -15 98 -7 1 -17 2 -23 3 -15 2 -12 22 7
43 25 28 74 23 105 -9z m1248 -3 c0 -18 -6 -33 -15 -36 -11 -5 -15 -22 -15
-70 0 -50 3 -64 15 -64 10 0 15 -10 15 -30 0 -28 -2 -30 -39 -30 -32 0 -44 6
-70 35 -28 32 -31 43 -31 97 0 56 3 65 32 95 25 26 40 33 70 33 36 0 38 -2 38
-30z m129 -5 c27 -31 31 -43 31 -95 0 -53 -3 -62 -34 -94 -26 -28 -41 -36 -70
-36 -33 0 -36 2 -36 29 0 16 5 31 12 33 14 5 12 131 -3 136 -5 2 -9 17 -9 33
0 27 3 29 39 29 32 0 44 -6 70 -35z m328 3 c30 -29 33 -37 33 -95 0 -55 -3
-66 -31 -98 -28 -31 -37 -35 -80 -35 -48 0 -49 1 -49 30 0 25 4 30 25 30 24 0
25 2 25 70 0 68 -1 70 -25 70 -29 0 -32 16 -8 42 26 29 72 23 110 -14z m213 2
c0 -20 -5 -30 -15 -30 -12 0 -15 -14 -15 -70 0 -56 3 -70 15 -70 10 0 15 -10
15 -30 0 -28 -3 -30 -37 -30 -28 0 -45 8 -70 32 -31 30 -33 37 -33 97 0 60 3
68 32 98 25 26 40 33 70 33 36 0 38 -2 38 -30z m117 -2 c31 -30 33 -37 33 -97
0 -60 -3 -68 -32 -98 -23 -24 -41 -33 -65 -33 -30 0 -33 3 -33 30 0 17 5 30
10 30 6 0 10 30 10 71 0 44 -4 68 -10 64 -6 -4 -10 8 -10 29 0 34 2 36 32 36
22 0 42 -10 65 -32z m273 3 c0 -23 -5 -30 -25 -33 -30 -6 -35 -2 -35 34 0 24
4 28 30 28 26 0 30 -3 30 -29z m140 -101 l0 -130 -50 0 -50 0 0 130 0 130 50
0 50 0 0 -130z m160 0 l0 -130 -24 0 c-15 0 -36 13 -55 35 -28 32 -31 43 -31
97 0 56 3 65 32 95 18 19 42 33 55 33 23 0 23 -1 23 -130z m138 99 c17 -16 32
-39 32 -50 0 -16 -7 -19 -49 -19 -40 0 -50 3 -54 20 -3 12 -14 20 -26 20 -17
0 -21 6 -21 30 0 29 2 30 43 30 33 0 49 -7 75 -31z m182 -14 l0 -45 57 0 c51
0 61 -4 90 -32 18 -18 33 -41 33 -52 0 -28 -59 -86 -87 -86 -21 0 -23 4 -23
50 l0 50 -59 0 c-73 0 -111 25 -111 73 0 38 43 87 77 87 21 0 23 -5 23 -45z
m153 25 c31 -37 22 -50 -33 -50 -27 0 -50 5 -50 10 0 6 -11 10 -24 10 -25 0
-37 15 -28 38 2 7 25 12 61 12 44 0 60 -4 74 -20z m-2763 -144 c4 -24 11 -32
30 -34 28 -4 72 -40 64 -53 -3 -5 -33 -9 -67 -9 -53 0 -65 4 -89 27 -36 35
-39 95 -6 130 l22 24 21 -27 c11 -16 22 -42 25 -58z m-1460 35 c0 -14 -8 -21
-27 -23 -20 -2 -29 -9 -31 -25 -3 -20 1 -23 27 -23 35 0 39 -14 14 -42 -23
-26 -90 -24 -120 4 -30 28 -30 74 -1 105 18 19 32 23 80 23 51 0 58 -2 58 -19z
m2195 -82 l25 -49 -59 0 -58 0 -21 48 -21 47 47 5 c26 3 50 4 55 2 4 -2 19
-26 32 -53z m1725 26 c0 -8 -13 -29 -29 -45 -23 -25 -36 -30 -75 -30 -44 0
-46 1 -46 30 0 25 4 30 25 30 16 0 25 6 25 15 0 11 12 15 50 15 38 0 50 -4 50
-15z m150 -15 c0 -5 11 -10 25 -10 20 0 25 -5 25 -25 0 -23 -3 -25 -52 -25
-39 0 -57 5 -75 22 -37 35 -30 48 27 48 28 0 50 -4 50 -10z"/>
<path d="M4626 4713 c-2 -3 1 -19 8 -36 7 -18 30 -76 50 -129 21 -54 42 -98
47 -98 5 0 9 23 9 50 l0 50 45 0 45 0 0 50 c0 41 3 50 18 51 24 1 7 7 -114 39
-57 15 -106 25 -108 23z"/>
<path d="M5405 4685 l-120 -30 -3 -47 -3 -48 50 0 51 0 0 -55 c0 -54 1 -55 29
-55 27 0 30 5 75 125 26 69 46 129 44 133 -2 4 -57 -6 -123 -23z"/>
<path d="M4830 4452 c0 -11 9 -22 20 -25 16 -4 20 -14 20 -51 l0 -46 50 0 51
0 -3 68 -3 67 -67 3 c-62 3 -68 1 -68 -16z"/>
<path d="M5150 4400 l0 -70 64 0 63 0 6 62 c3 34 3 66 1 70 -3 4 -34 8 -70 8
l-64 0 0 -70z"/>
<path d="M4960 4170 l0 -60 100 0 100 0 0 60 0 60 -100 0 -100 0 0 -60z"/>
<path d="M4874 4086 c-3 -8 -4 -27 -2 -43 3 -26 6 -28 48 -28 l45 0 0 40 c0
40 0 40 -43 43 -30 2 -44 -1 -48 -12z"/>
</g>
</svg>
