<svg xmlns="http://www.w3.org/2000/svg" xmlns:xlink="http://www.w3.org/1999/xlink" viewBox="0 0 800.98 1012.96"><defs><style>.cls-1,.cls-3,.cls-6{fill:none;}.cls-2{clip-path:url(#clip-path);}.cls-3{stroke:#00e676;}.cls-3,.cls-6{stroke-miterlimit:10;stroke-width:19px;}.cls-4{fill:#f44336;}.cls-5{clip-path:url(#clip-path-2);}.cls-6{stroke:#00e475;}.cls-7{fill:#00e475;}.cls-8{fill:#fff;}</style><clipPath id="clip-path" transform="translate(-111.01 -1.02)"><rect class="cls-1" x="199.15" y="777.19" width="632.17" height="175.66"/></clipPath><clipPath id="clip-path-2" transform="translate(-111.01 -1.02)"><rect class="cls-1" x="199.15" y="145.02" width="619.91" height="642.38"/></clipPath></defs><title>logo</title><g id="Group_1" data-name="Group 1"><g class="cls-2"><g id="R"><path d="M764.88,705.31V544.57l-46.53-45.68,46.53-46.41V272.73L652.36,159.64H215.83V318.69h42.3V705.31h-42.3V864.36H494.16V705.31h-42.3v-126H548.3l22.85,22.84V864.36h236V705.31ZM571.15,397.55,548.3,420.21H451.86V318.69H548.3l22.85,22.66Z" transform="translate(-111.01 -1.02)"/><path class="cls-3" d="M764.88,705.31V544.57l-46.53-45.68,46.53-46.41V272.73L652.36,159.64H215.83V318.69h42.3V705.31h-42.3V864.36H494.16V705.31h-42.3v-126H548.3l22.85,22.84V864.36h236V705.31ZM571.15,397.55,548.3,420.21H451.86V318.69H548.3l22.85,22.66Z" transform="translate(-111.01 -1.02)"/></g></g><g id="Tail"><g id="Tail-2" data-name="Tail"><path class="cls-4" d="M851.63,938.86C737.82,928.1,630.48,916.49,590.54,911l-3.45-.49c-36.88-5.3-398-58.9-397.32-129.75.75-74.47,150-76,150-76s.29-54.16,0-66.9-243.6,42.41-228,151c21.32,135.21,421.81,144.09,473.33,150s254.23,14.19,266.57,15.21c13.59,1.12,41.59,7,41.56,13.18-.05,7.52-19.25,7.9-48.66,11.15-20.4,2.25-71.92,17.85,4.06,14.19C943.41,988,921.29,945.45,851.63,938.86Z" transform="translate(-111.01 -1.02)"/></g><g id="Tail_Tip" data-name="Tail Tip"><path class="cls-4" d="M829.74,997.84s.86-3.06,1-10.69c-5-8,8.58-24.76,8.58-24.76-53.89,24.52-75.56,15.69-76,15.55,40.11,35.95,71.89,37.94,75.34,35.19C829,1004.14,829.74,997.84,829.74,997.84Z" transform="translate(-111.01 -1.02)"/></g></g><g class="cls-5"><g id="R-2" data-name="R"><path d="M764.88,705.31V544.57l-46.53-45.68,46.53-46.41V272.73L652.36,159.64H215.83V318.69h42.3V705.31h-42.3V864.36H494.16V705.31h-42.3v-126H548.3l22.85,22.84V864.36h236V705.31ZM571.15,397.55,548.3,420.21H451.86V318.69H548.3l22.85,22.66Z" transform="translate(-111.01 -1.02)"/><path class="cls-6" d="M764.88,705.31V544.57l-46.53-45.68,46.53-46.41V272.73L652.36,159.64H215.83V318.69h42.3V705.31h-42.3V864.36H494.16V705.31h-42.3v-126H548.3l22.85,22.84V864.36h236V705.31ZM571.15,397.55,548.3,420.21H451.86V318.69H548.3l22.85,22.66Z" transform="translate(-111.01 -1.02)"/></g></g><g id="Horns"><g id="Horn_Right" data-name="Horn Right"><path class="cls-4" d="M761,43.87c-.05-3.23-.14-6.41-.27-9.52-.12-2.64-.42-6.82-.68-10.33a77.21,77.21,0,0,0-2-13,39.09,39.09,0,0,0-2-6,37.3,37.3,0,0,0-2-4c-1,2-2,4-3,6-1.94,4.12-3.5,8-5,12s-5,11.76-8,18A294.56,294.56,0,0,1,716.6,75.29,256.7,256.7,0,0,1,695,103c-9.46,10.61-18.6,18.75-27,24-5.83,3.65-14.22,7.51-23,11-3.34,1.33-9.16,3.35-14,5a164.35,164.35,0,0,1-17,5c-3.65.82-7.29,1.48-11,2a82.07,82.07,0,0,0,10,31c16.05,28.32,45.78,41.44,70,43a81.83,81.83,0,0,0,19-1,104.66,104.66,0,0,0,22.65-20.87,108.16,108.16,0,0,0,14.8-24.72c7.21-16.3,11.09-34.67,14.94-57.11,2.45-14.29,4.52-28.69,5.65-41.76.52-6,.89-12,1-17.36C761.17,57.16,761.05,49.79,761,43.87Z" transform="translate(-111.01 -1.02)"/></g><g id="Horn_Left" data-name="Horn Left"><path class="cls-4" d="M309.43,148a164.35,164.35,0,0,1-17-5c-4.84-1.65-10.67-3.67-14-5-8.78-3.49-17.17-7.35-23-11-8.4-5.25-17.54-13.39-27-24a255.44,255.44,0,0,1-21.58-27.73A293.39,293.39,0,0,1,185.43,37c-3-6.24-6.55-14.12-8-18s-3.06-7.88-5-12c-1-2-2-4-3-6a35.53,35.53,0,0,0-2,4,39.09,39.09,0,0,0-2,6,77.21,77.21,0,0,0-2,13c-.26,3.51-.57,7.69-.68,10.33-.14,3.11-.22,6.29-.27,9.52-.09,5.92-.21,13.29-.11,17.33.13,5.35.5,11.36,1,17.36,1.13,13.07,3.19,27.47,5.65,41.76,3.85,22.44,7.73,40.81,14.94,57.11,4,9,8.34,17,14.8,24.72A93.5,93.5,0,0,0,225.43,224a86.37,86.37,0,0,0,15,0c19.59-1.71,52.16-11.53,70-43a82.25,82.25,0,0,0,10-31C316.72,149.5,313.08,148.84,309.43,148Z" transform="translate(-111.01 -1.02)"/></g></g><rect x="322.06" y="303.29" width="155.08" height="132.92"/></g><g id="Centre"><g id="Right"><rect class="cls-7" x="554.58" y="318.9" width="28.12" height="10.41" transform="translate(-173.64 496) rotate(-45)"/><rect class="cls-7" x="540.44" y="304.99" width="28.09" height="9.91" transform="translate(-167.78 481.84) rotate(-45)"/><path class="cls-7" d="M589.44,325l-19.88,19.89,0,.05a34.67,34.67,0,0,1,0,49.05l0,.05,19.88,19.89,44.47-44.46Z" transform="translate(-111.01 -1.02)"/></g><g id="Top"><rect class="cls-7" x="449.93" y="305.02" width="28.12" height="10.41" transform="translate(461.71 856.66) rotate(-135)"/><rect class="cls-7" x="435.79" y="319.43" width="28.09" height="9.91" transform="translate(427.53 870.82) rotate(-135)"/><path class="cls-7" d="M464.89,289.43l19.88,19.88.05,0a34.69,34.69,0,0,1,49.06,0l0,0,19.88-19.88L509.35,245Z" transform="translate(-111.01 -1.02)"/></g><g id="Left"><rect class="cls-7" x="435.84" y="409.85" width="28.12" height="10.41" transform="translate(950.51 389.39) rotate(135)"/><rect class="cls-7" x="450.01" y="424.26" width="28.09" height="9.91" transform="translate(984.69 403.55) rotate(135)"/><path class="cls-7" d="M429.1,414.16,449,394.28l-.05,0a34.69,34.69,0,0,1,0-49.06l.05-.05L429.1,325.24,384.64,369.7Z" transform="translate(-111.01 -1.02)"/></g><g id="Bottom"><rect class="cls-7" x="540.49" y="423.73" width="28.12" height="10.41" transform="translate(354.72 -267.52) rotate(45)"/><rect class="cls-7" x="554.66" y="409.82" width="28.09" height="9.91" transform="translate(348.85 -281.67) rotate(45)"/><path class="cls-7" d="M553.66,449.74l-19.89-19.89,0,0a34.67,34.67,0,0,1-49.05,0l-.05,0-19.89,19.89L509.2,494.2Z" transform="translate(-111.01 -1.02)"/></g><rect class="cls-8" x="468.48" y="328.82" width="81.29" height="81.29" transform="translate(-223.14 467.2) rotate(-45)"/></g></svg>