<svg viewBox="0 0 113 48" fill="none" xmlns="http://www.w3.org/2000/svg">
<path d="M4.36364 43.3636V4.09091H13.0909V8.45455H8.72727V39H13.0909V43.3636H4.36364ZM69.7543 43.3636V39H74.1179V8.45455H69.7543V4.09091H78.4815V43.3636H69.7543ZM87.1875 34.6364V30.2727H91.5511V25.9091H87.1875V21.5455H91.5511V17.1818H95.9148V21.5455H100.278V17.1818H104.642V21.5455H109.006V25.9091H104.642V30.2727H109.006V34.6364H104.642V39H100.278V34.6364H95.9148V39H91.5511V34.6364H87.1875ZM95.9148 30.2727H100.278V25.9091H95.9148V30.2727Z"/>
<path fill-rule="evenodd" clip-rule="evenodd" d="M25 11.9208H27.4V35.6832H25V44H40.2V35.6832H37.8V27.3663H44.2L45.8 28.9505V44H59V35.6832H56.2V25.7822L53.4 23.0099L56.2 20.2376V9.94059L50.2 4H25V11.9208ZM37.8 11.9208V19.0495H44.2L45.8 17.5V13.6374L44.2 11.9208H37.8Z"/>
</svg>
